IDResults
version=1
nRows=22
nColumns=21
inDegrees=yes
endheader
time	crank_angle	pedal_angle_r	pelvis_tilt	pelvis_list	pelvis_rotation	pelvis_tx	pelvis_ty	pelvis_tz	hip_angle_r	hip_adduction_r	hip_rotation_r	knee_angle_r	tib_tx_r	tib_ty_r	pat_angle_r	pat_tx_r	pat_ty_r	ankle_angle_r	subtalar_angle_r	mtp_angle_r
      0.00000000	    -44.99999064	     47.69826876	      0.00000000	      0.00000000	      0.00000000	     -0.10000000	     -0.05000000	     -0.00085074	     80.35884668	      4.12829562	     -2.41600875	   -100.78263205	      0.00193373	     -0.48966704	     17.60972265	      0.02841491	     -0.02321777	     23.69010372	      0.00000000	      0.00000000
      0.00100000	    -45.48012927	     48.27850863	      0.00000000	      0.00000000	      0.00000000	     -0.10000000	     -0.05000000	     -0.00085074	     80.25387446	      4.13037120	     -2.39542594	   -100.53612471	      0.00198696	     -0.48958231	     17.60870656	      0.02851940	     -0.02320342	     23.64714767	      0.00000000	      0.00000000
      0.00150000	    -45.72019859	     48.56849806	      0.00000000	      0.00000000	      0.00000000	     -0.10000000	     -0.05000000	     -0.00085074	     80.20080091	      4.13140756	     -2.38512402	   -100.41252127	      0.00201347	     -0.48953980	     17.60819576	      0.02857170	     -0.02319626	     23.62577812	      0.00000000	      0.00000000
      0.00358966	    -46.72352508	     49.77952457	      0.00000000	      0.00000000	      0.00000000	     -0.10000000	     -0.05000000	     -0.00085074	     79.97478441	      4.13572753	     -2.34199580	    -99.89345623	      0.00212349	     -0.48936120	     17.60604226	      0.02879064	     -0.02316650	     23.53726390	      0.00000000	      0.00000000
      0.00517917	    -47.48671024	     50.69970240	      0.00000000	      0.00000000	      0.00000000	     -0.10000000	     -0.05000000	     -0.00085074	     79.79836190	      4.13900021	     -2.30911437	    -99.49598582	      0.00220630	     -0.48922432	     17.60438556	      0.02895754	     -0.02314404	     23.47081158	      0.00000000	      0.00000000
      0.00676868	    -48.24989540	     51.61903327	      0.00000000	      0.00000000	      0.00000000	     -0.10000000	     -0.05000000	     -0.00085074	     79.61809585	      4.14226014	     -2.27617098	    -99.09628339	      0.00228832	     -0.48908657	     17.60271453	      0.02912473	     -0.02312174	     23.40513370	      0.00000000	      0.00000000
      0.00822054	    -48.94698947	     52.45802094	      0.00000000	      0.00000000	      0.00000000	     -0.10000000	     -0.05000000	     -0.00085074	     79.45011792	      4.14522572	     -2.24602888	    -98.72928250	      0.00236253	     -0.48896000	     17.60117709	      0.02927766	     -0.02310152	     23.34583286	      0.00000000	      0.00000000
      0.01015968	    -49.87804550	     53.57752254	      0.00000000	      0.00000000	      0.00000000	     -0.10000000	     -0.05000000	     -0.00085074	     79.22087220	      4.14916721	     -2.20569749	    -98.23632007	      0.00246056	     -0.48878988	     17.59910940	      0.02948224	     -0.02307476	     23.26767533	      0.00000000	      0.00000000
      0.01209882	    -50.80910153	     54.69581897	      0.00000000	      0.00000000	      0.00000000	     -0.10000000	     -0.05000000	     -0.00085074	     78.98610481	      4.15308479	     -2.16528740	    -97.74024395	      0.00255731	     -0.48861855	     17.59702835	      0.02968711	     -0.02304829	     23.19073715	      0.00000000	      0.00000000
      0.01369987	    -51.57782748	     55.61824688	      0.00000000	      0.00000000	      0.00000000	     -0.10000000	     -0.05000000	     -0.00085074	     78.78816323	      4.15629997	     -2.13186691	    -97.32836904	      0.00263618	     -0.48847621	     17.59530238	      0.02985646	     -0.02302666	     23.12814921	      0.00000000	      0.00000000
      0.01530091	    -52.34654864	     56.53987427	      0.00000000	      0.00000000	      0.00000000	     -0.10000000	     -0.05000000	     -0.00085074	     78.58655640	      4.15949653	     -2.09839883	    -96.91447336	      0.00271413	     -0.48833309	     17.59357146	      0.03002597	     -0.02300526	     23.06642212	      0.00000000	      0.00000000
      0.01657431	    -52.95795717	     57.27233860	      0.00000000	      0.00000000	      0.00000000	     -0.10000000	     -0.05000000	     -0.00085074	     78.42361858	      4.16202498	     -2.07174723	    -96.58386307	      0.00277545	     -0.48821872	     17.59219252	      0.03016088	     -0.02298840	     23.01794961	      0.00000000	      0.00000000
      0.01769971	    -53.49830519	     57.91926549	      0.00000000	      0.00000000	      0.00000000	     -0.10000000	     -0.05000000	     -0.00085074	     78.27772873	      4.16424884	     -2.04817026	    -96.29065344	      0.00282912	     -0.48811725	     17.59097306	      0.03028016	     -0.02297363	     22.97557525	      0.00000000	      0.00000000
      0.01880841	    -54.03063489	     58.55622306	      0.00000000	      0.00000000	      0.00000000	     -0.10000000	     -0.05000000	     -0.00085074	     78.13228600	      4.16642952	     -2.02492292	    -96.00087054	      0.00288153	     -0.48801694	     17.58977169	      0.03039772	     -0.02295919	     22.93425996	      0.00000000	      0.00000000
      0.01991712	    -54.56296939	     59.19282364	      0.00000000	      0.00000000	      0.00000000	     -0.10000000	     -0.05000000	     -0.00085074	     77.98515195	      4.16859978	     -2.00165603	    -95.71018227	      0.00293346	     -0.48791628	     17.58857100	      0.03051531	     -0.02294488	     22.89337513	      0.00000000	      0.00000000
      0.02216201	    -55.64082781	     60.48070307	      0.00000000	      0.00000000	      0.00000000	     -0.10000000	     -0.05000000	     -0.00085074	     77.68212432	      4.17296086	     -1.95448939	    -95.11889844	      0.00303709	     -0.48771146	     17.58614483	      0.03075349	     -0.02291629	     22.81192672	      0.00000000	      0.00000000
      0.02309600	    -56.08927249	     61.01610180	      0.00000000	      0.00000000	      0.00000000	     -0.10000000	     -0.05000000	     -0.00085074	     77.55405558	      4.17476171	     -1.93484445	    -94.87184948	      0.00307961	     -0.48762585	     17.58513848	      0.03085260	     -0.02290455	     22.77857163	      0.00000000	      0.00000000
      0.02402998	    -56.53771237	     61.55124819	      0.00000000	      0.00000000	      0.00000000	     -0.10000000	     -0.05000000	     -0.00085074	     77.42482984	      4.17655429	     -1.91518784	    -94.62420205	      0.00312177	     -0.48754002	     17.58413457	      0.03095172	     -0.02289291	     22.74553227	      0.00000000	      0.00000000
      0.02472300	    -56.87045804	     61.94817273	      0.00000000	      0.00000000	      0.00000000	     -0.10000000	     -0.05000000	     -0.00085074	     77.32820005	      4.17787897	     -1.90059503	    -94.44006238	      0.00315282	     -0.48747619	     17.58339149	      0.03102526	     -0.02288433	     22.72122181	      0.00000000	      0.00000000
      0.02538678	    -57.18916447	     62.32822495	      0.00000000	      0.00000000	      0.00000000	     -0.10000000	     -0.05000000	     -0.00085074	     77.23505731	      4.17914334	     -1.88661212	    -94.26338925	      0.00318236	     -0.48741495	     17.58268141	      0.03109570	     -0.02287617	     22.69810161	      0.00000000	      0.00000000
      0.02685525	    -57.89423364	     63.16857725	      0.00000000	      0.00000000	      0.00000000	     -0.10000000	     -0.05000000	     -0.00085074	     77.02696419	      4.18192483	     -1.85565839	    -93.87150107	      0.00324707	     -0.48727907	     17.58111703	      0.03125152	     -0.02285829	     22.64752863	      0.00000000	      0.00000000
      0.02832372	    -58.59930282	     64.00834294	      0.00000000	      0.00000000	      0.00000000	     -0.10000000	     -0.05000000	     -0.00085074	     76.81609668	      4.18468421	     -1.82467880	    -93.47821131	      0.00331085	     -0.48714267	     17.57956306	      0.03140730	     -0.02284067	     22.59775412	      0.00000000	      0.00000000
